<?xml version="1.0" encoding="UTF-8"?>
<svg id="Layer_1" data-name="Layer 1" xmlns="http://www.w3.org/2000/svg" version="1.1" viewBox="0 0 262.6 71.43">
  <defs>
    <style>
      .cls-1 {
        fill: #000;
      }

      .cls-1, .cls-2, .cls-3 {
        stroke-width: 0px;
      }

      .cls-2 {
        fill: #333;
      }

      .cls-3 {
        fill: #fdb930;
      }
    </style>
  </defs>
  <g>
    <path class="cls-2" d="M13.72,27.87v7.33h51.27c-.22-18.02-14.88-32.56-32.95-32.56-8.58,0-16.39,3.28-22.25,8.66,1.88,1.33,3.12,3.51,3.12,5.99,0,4.05-3.28,7.33-7.33,7.33-1.53,0-2.95-.47-4.13-1.28-.59,1.46-1.08,2.97-1.45,4.53h13.72Z"/>
    <path class="cls-3" d="M13.72,63c5.24,3.51,11.53,5.56,18.31,5.56,17.52,0,31.84-13.67,32.9-30.93H13.72v25.37Z"/>
  </g>
  <g>
    <path class="cls-1" d="M83.79,17.32c-.87-.87-1.3-1.91-1.3-3.12s.43-2.24,1.3-3.09c.87-.85,1.91-1.27,3.12-1.27s2.24.43,3.09,1.27c.85.85,1.27,1.88,1.27,3.09s-.42,2.25-1.27,3.12c-.85.87-1.88,1.3-3.09,1.3s-2.25-.43-3.12-1.3ZM83.48,21.53h6.81v26.52h-6.81v-26.52Z"/>
    <path class="cls-1" d="M100.95,46.12c-2.5-1.84-4.25-4.44-5.25-7.8l6.6-2.6c.52,1.98,1.4,3.55,2.65,4.73,1.25,1.18,2.81,1.77,4.68,1.77,1.56,0,2.89-.39,4-1.17,1.11-.78,1.66-1.86,1.66-3.25s-.53-2.52-1.59-3.41c-1.06-.88-2.94-1.83-5.64-2.83l-2.29-.83c-2.39-.83-4.44-2.11-6.14-3.82-1.7-1.72-2.55-3.87-2.55-6.47,0-1.94.5-3.71,1.51-5.3,1-1.59,2.43-2.85,4.26-3.77,1.84-.92,3.92-1.38,6.24-1.38,3.36,0,6.01.79,7.96,2.37,1.94,1.58,3.28,3.42,4,5.54l-6.19,2.6c-.38-1.14-1.05-2.11-2-2.89-.95-.78-2.18-1.17-3.67-1.17s-2.78.36-3.77,1.07c-.99.71-1.48,1.64-1.48,2.78s.47,2.05,1.4,2.83c.94.78,2.48,1.53,4.63,2.26l2.34.78c3.22,1.11,5.69,2.57,7.41,4.39,1.72,1.82,2.57,4.2,2.57,7.15,0,2.43-.62,4.48-1.87,6.16s-2.85,2.94-4.81,3.77c-1.96.83-3.98,1.25-6.06,1.25-3.26,0-6.14-.92-8.63-2.76Z"/>
    <path class="cls-1" d="M128.04,10.82h6.81v9.41l-.42,4.63h.42c.76-1.25,1.87-2.25,3.33-3.02,1.46-.76,3.03-1.14,4.73-1.14,3.22,0,5.69.96,7.41,2.89,1.72,1.92,2.57,4.58,2.57,7.98v16.48h-6.81v-15.65c0-1.7-.46-3.02-1.38-3.95-.92-.94-2.14-1.4-3.67-1.4-1.8,0-3.29.73-4.45,2.18-1.16,1.46-1.74,3.24-1.74,5.36v13.47h-6.81V10.82Z"/>
    <path class="cls-1" d="M160.28,46.41c-1.8-1.65-2.7-3.8-2.7-6.47,0-1.77.47-3.33,1.4-4.68.94-1.35,2.22-2.39,3.85-3.12,1.63-.73,3.43-1.09,5.41-1.09,2.74,0,5.08.4,7.02,1.2v-1.14c0-1.46-.55-2.63-1.64-3.54-1.09-.9-2.56-1.35-4.39-1.35-1.25,0-2.45.29-3.61.86-1.16.57-2.12,1.33-2.89,2.26l-4.37-3.43c1.28-1.66,2.89-2.95,4.84-3.85,1.94-.9,4.06-1.35,6.34-1.35,4.06,0,7.14.94,9.26,2.81,2.11,1.87,3.17,4.61,3.17,8.22v16.33h-6.71v-2.7h-.42c-.8,1.04-1.85,1.89-3.15,2.55-1.3.66-2.8.99-4.5.99-2.81,0-5.11-.82-6.92-2.47ZM173.51,41.68c1.16-1.26,1.74-2.75,1.74-4.45-1.77-.83-3.62-1.25-5.56-1.25-3.54,0-5.3,1.32-5.3,3.95,0,1.07.38,1.95,1.14,2.62.76.68,1.85,1.01,3.28,1.01,1.98,0,3.54-.63,4.71-1.9Z"/>
    <path class="cls-1" d="M188.26,21.53h6.4v3.54h.42c.66-1.25,1.68-2.28,3.07-3.09,1.39-.81,2.91-1.22,4.58-1.22,1.21,0,2.32.19,3.33.57v6.81c-.94-.35-1.73-.6-2.37-.75-.64-.16-1.33-.23-2.05-.23-2.01,0-3.61.73-4.78,2.18-1.18,1.46-1.77,3.29-1.77,5.51v13.21h-6.81v-26.52Z"/>
    <path class="cls-1" d="M214.2,47.06c-2.12-1.21-3.77-2.89-4.97-5.02-1.2-2.13-1.79-4.53-1.79-7.2,0-2.53.59-4.88,1.77-7.05,1.18-2.17,2.81-3.89,4.89-5.17,2.08-1.28,4.4-1.92,6.97-1.92,2.74,0,5.1.59,7.07,1.77,1.98,1.18,3.47,2.79,4.5,4.84,1.02,2.05,1.53,4.32,1.53,6.81,0,.8-.05,1.56-.16,2.29h-19.92c.35,2.12,1.19,3.72,2.52,4.81,1.33,1.09,2.94,1.64,4.81,1.64,1.56,0,2.9-.34,4.03-1.01,1.13-.68,2.02-1.59,2.68-2.73l5.51,2.7c-2.7,4.71-6.81,7.07-12.32,7.07-2.63,0-5.01-.61-7.12-1.82ZM227.62,31.56c-.07-.83-.37-1.65-.91-2.47-.54-.81-1.28-1.49-2.24-2.03-.95-.54-2.07-.81-3.35-.81-1.63,0-3.02.48-4.19,1.43-1.16.95-2,2.24-2.52,3.87h13.21Z"/>
  </g>
  <g>
    <path class="cls-1" d="M82.95,59.64h2.35c1.06,0,1.84.18,2.33.54s.74.9.74,1.63c0,.5-.15.91-.45,1.24s-.75.54-1.33.64v.04c.68.1,1.19.32,1.51.65s.48.79.48,1.38c0,.79-.26,1.4-.79,1.82s-1.27.64-2.23.64h-2.62v-8.57ZM83.54,63.45h1.89c.8,0,1.39-.13,1.75-.4s.55-.69.55-1.26-.21-.98-.62-1.24-1.03-.39-1.84-.39h-1.73v3.29ZM83.54,63.98v3.7h2.02c1.59,0,2.38-.64,2.38-1.93,0-1.18-.84-1.76-2.51-1.76h-1.89Z"/>
    <path class="cls-1" d="M96.77,59.64v5.54c0,.98-.29,1.75-.86,2.31s-1.37.83-2.38.83-1.77-.28-2.32-.83-.83-1.33-.83-2.33v-5.52h.6v5.54c0,.82.23,1.47.69,1.92s1.1.69,1.94.69,1.45-.23,1.9-.68.67-1.08.67-1.88v-5.6h.6Z"/>
    <path class="cls-1" d="M99.1,68.2v-8.57h.6v8.57h-.6Z"/>
    <path class="cls-1" d="M102.12,68.2v-8.57h.6v8h4.08v.56h-4.68Z"/>
    <path class="cls-1" d="M114.79,63.84c0,1.44-.38,2.52-1.13,3.26s-1.86,1.1-3.32,1.1h-2.05v-8.57h2.31c1.37,0,2.41.36,3.12,1.07s1.07,1.76,1.07,3.13ZM114.14,63.86c0-1.23-.31-2.15-.93-2.77s-1.54-.93-2.75-.93h-1.58v7.51h1.42c2.56,0,3.84-1.27,3.84-3.81Z"/>
    <path class="cls-1" d="M121.84,64.33l2.51-4.69h.64l-2.85,5.26v3.31h-.62v-3.26l-2.87-5.3h.69l2.5,4.69Z"/>
    <path class="cls-1" d="M133.41,63.91c0,1.36-.34,2.43-1.02,3.23s-1.62,1.19-2.81,1.19-2.13-.4-2.81-1.19-1.02-1.87-1.02-3.24.34-2.44,1.03-3.22,1.62-1.17,2.81-1.17,2.13.39,2.81,1.18,1.01,1.86,1.01,3.23ZM126.4,63.91c0,1.23.27,2.17.82,2.84s1.33,1,2.36,1,1.82-.33,2.36-1,.82-1.62.82-2.85-.27-2.18-.82-2.84-1.33-.99-2.35-.99-1.81.33-2.36,1-.83,1.61-.83,2.83Z"/>
    <path class="cls-1" d="M141.68,59.64v5.54c0,.98-.29,1.75-.86,2.31s-1.37.83-2.38.83-1.77-.28-2.32-.83-.83-1.33-.83-2.33v-5.52h.6v5.54c0,.82.23,1.47.69,1.92s1.1.69,1.94.69,1.45-.23,1.9-.68.67-1.08.67-1.88v-5.6h.6Z"/>
    <path class="cls-1" d="M144.61,64.47v3.73h-.6v-8.57h2.04c1.06,0,1.85.2,2.36.59s.76.98.76,1.77c0,.57-.15,1.06-.45,1.45s-.76.68-1.38.85l2.33,3.9h-.71l-2.21-3.73h-2.13ZM144.61,63.96h1.63c.72,0,1.28-.16,1.68-.48s.6-.8.6-1.43-.2-1.13-.59-1.42-1.03-.45-1.91-.45h-1.42v3.78Z"/>
    <path class="cls-1" d="M160.76,63.84c0,1.44-.38,2.52-1.13,3.26s-1.86,1.1-3.32,1.1h-2.05v-8.57h2.31c1.37,0,2.41.36,3.12,1.07s1.07,1.76,1.07,3.13ZM160.11,63.86c0-1.23-.31-2.15-.93-2.77s-1.54-.93-2.75-.93h-1.58v7.51h1.42c2.56,0,3.84-1.27,3.84-3.81Z"/>
    <path class="cls-1" d="M169.93,63.91c0,1.36-.34,2.43-1.02,3.23s-1.62,1.19-2.81,1.19-2.13-.4-2.81-1.19-1.02-1.87-1.02-3.24.34-2.44,1.03-3.22,1.62-1.17,2.81-1.17,2.13.39,2.81,1.18,1.01,1.86,1.01,3.23ZM162.92,63.91c0,1.23.27,2.17.82,2.84s1.33,1,2.36,1,1.82-.33,2.36-1,.82-1.62.82-2.85-.27-2.18-.82-2.84-1.33-.99-2.35-.99-1.81.33-2.36,1-.83,1.61-.83,2.83Z"/>
    <path class="cls-1" d="M178.13,68.2h-.6l-5.07-7.61h-.05c.05.91.07,1.59.07,2.05v5.55h-.57v-8.57h.6l5.07,7.59h.04c-.04-.7-.05-1.37-.05-2v-5.59h.58v8.57Z"/>
    <path class="cls-1" d="M187.75,63.91c0,1.36-.34,2.43-1.02,3.23s-1.62,1.19-2.81,1.19-2.13-.4-2.81-1.19-1.02-1.87-1.02-3.24.34-2.44,1.03-3.22,1.62-1.17,2.81-1.17,2.13.39,2.81,1.18,1.01,1.86,1.01,3.23ZM180.75,63.91c0,1.23.27,2.17.82,2.84s1.33,1,2.36,1,1.82-.33,2.36-1,.82-1.62.82-2.85-.27-2.18-.82-2.84-1.33-.99-2.35-.99-1.81.33-2.36,1-.83,1.61-.83,2.83Z"/>
    <path class="cls-1" d="M190.32,64.47v3.73h-.6v-8.57h2.04c1.06,0,1.85.2,2.36.59s.76.98.76,1.77c0,.57-.15,1.06-.45,1.45s-.76.68-1.38.85l2.33,3.9h-.71l-2.21-3.73h-2.13ZM190.32,63.96h1.63c.72,0,1.28-.16,1.68-.48s.6-.8.6-1.43-.2-1.13-.59-1.42-1.03-.45-1.91-.45h-1.42v3.78Z"/>
    <path class="cls-1" d="M198.56,70.37c-.36,0-.65-.05-.88-.16v-.52c.3.08.6.12.87.12.95,0,1.42-.52,1.42-1.55v-8.62h.6v8.57c0,1.44-.67,2.16-2,2.16Z"/>
    <path class="cls-1" d="M210.14,63.91c0,1.36-.34,2.43-1.02,3.23s-1.62,1.19-2.81,1.19-2.13-.4-2.81-1.19-1.02-1.87-1.02-3.24.34-2.44,1.03-3.22,1.62-1.17,2.81-1.17,2.13.39,2.81,1.18,1.01,1.86,1.01,3.23ZM203.13,63.91c0,1.23.27,2.17.82,2.84s1.33,1,2.36,1,1.82-.33,2.36-1,.82-1.62.82-2.85-.27-2.18-.82-2.84-1.33-.99-2.35-.99-1.81.33-2.36,1-.83,1.61-.83,2.83Z"/>
    <path class="cls-1" d="M218.4,59.64v5.54c0,.98-.29,1.75-.86,2.31s-1.37.83-2.38.83-1.77-.28-2.32-.83-.83-1.33-.83-2.33v-5.52h.6v5.54c0,.82.23,1.47.69,1.92s1.1.69,1.94.69,1.45-.23,1.9-.68.67-1.08.67-1.88v-5.6h.6Z"/>
    <path class="cls-1" d="M221.33,64.47v3.73h-.6v-8.57h2.04c1.06,0,1.85.2,2.36.59s.76.98.76,1.77c0,.57-.15,1.06-.45,1.45s-.76.68-1.38.85l2.33,3.9h-.71l-2.21-3.73h-2.13ZM221.33,63.96h1.63c.72,0,1.28-.16,1.68-.48s.6-.8.6-1.43-.2-1.13-.59-1.42-1.03-.45-1.91-.45h-1.42v3.78Z"/>
    <path class="cls-1" d="M234.1,68.2h-.6l-5.07-7.61h-.05c.05.91.07,1.59.07,2.05v5.55h-.57v-8.57h.6l5.07,7.59h.04c-.04-.7-.05-1.37-.05-2v-5.59h.58v8.57Z"/>
    <path class="cls-1" d="M241.2,68.2h-4.68v-8.57h4.68v.55h-4.08v3.24h3.86v.55h-3.86v3.67h4.08v.55Z"/>
    <path class="cls-1" d="M245.11,64.33l2.51-4.69h.64l-2.85,5.26v3.31h-.62v-3.26l-2.87-5.3h.69l2.5,4.69Z"/>
  </g>
  <path class="cls-1" d="M238.06,22.87c-.95-.56-1.71-1.31-2.27-2.27-.56-.95-.84-1.99-.84-3.1s.28-2.15.84-3.1c.56-.95,1.31-1.71,2.27-2.27s1.99-.84,3.1-.84,2.15.28,3.11.84,1.71,1.31,2.27,2.27c.56.95.84,1.99.84,3.1s-.28,2.15-.84,3.1c-.56.95-1.31,1.71-2.27,2.27-.95.56-1.99.84-3.11.84s-2.15-.28-3.1-.84ZM243.63,21.75c.75-.44,1.34-1.04,1.78-1.8.44-.76.66-1.57.66-2.46s-.22-1.72-.66-2.47c-.44-.75-1.04-1.34-1.78-1.78-.75-.44-1.57-.66-2.47-.66s-1.7.22-2.46.66c-.76.44-1.35,1.04-1.79,1.78-.44.75-.66,1.57-.66,2.47s.23,1.7.68,2.44c.45.75,1.05,1.35,1.79,1.8.75.45,1.56.67,2.44.67s1.72-.22,2.47-.66ZM239.08,14.44h2.59c.52,0,.98.19,1.38.57.4.38.59.84.59,1.38,0,.41-.13.79-.39,1.12-.26.33-.58.55-.96.66l-.05.05,1.62,2.27v.05h-1.4l-1.48-2.27h-.65v2.27h-1.24v-6.1ZM241.57,17.14c.23,0,.43-.07.59-.22.16-.14.24-.32.24-.54,0-.2-.08-.37-.23-.53-.15-.15-.35-.23-.58-.23h-1.27v1.51h1.24Z"/>
</svg>